<svg viewBox="0 0 32 32" xmlns="http://www.w3.org/2000/svg">
    <path fill="#999" fill-rule="evenodd" d="M32 30c0 1.1-.9 2-2 2H2c-1.1 0-2-.9-2-2V2C0 .9.9 0 2 0h28c1.1 0 2 .9 2 2v28z M19 6h-6.16c-2.82 0-5.48 1.98-5.48 4.45 0 2.53 1.92 4.5 4.8 4.5.2 0 .4-.05.58-.06-.2.3-.32.7-.32 1.1 0 .7.38 1.27.85 1.73h-1.1C8.7 17.78 6 20 6 22.33 6 24.6 8.95 26 12.44 26c3.98 0 6.18-2.26 6.18-4.53 0-1.82-.53-2.9-2.2-4.1-.56-.4-1.65-1.37-1.65-1.95 0-.67.2-1 1.2-1.8 1.05-.8 1.78-1.78 1.78-3.1 0-1.6-.68-3.52-2-3.52H18l1-1zm-2.07 15.07c.05.22.08.43.08.65 0 1.84-1.14 3.27-4.53 3.27-2.42 0-4.16-1.57-4.16-3.4 0-1.8 2.16-3.3 4.58-3.28.56 0 1.1.1 1.56.25 1.32.9 2.26 1.43 2.53 2.46zm-3.87-6.85c-1.62-.04-3.16-1.8-3.44-3.94-.28-2.12.8-3.75 2.43-3.7 1.62.04 3.16 1.75 3.44 3.88.23 2.13-.86 3.8-2.48 3.76zM24 14v-3h-2v3h-3v2h3v3h2v-3h3v-2"/>
</svg>