<svg viewBox="0 0 32 32" xmlns="http://www.w3.org/2000/svg">
    <path fill="#999" fill-rule="evenodd" d="M32 30c0 1.1-.9 2-2 2H2c-1.1 0-2-.9-2-2V2C0 .9.9 0 2 0h28c1.1 0 2 .9 2 2v28z M26 9.9c-.75.32-1.54.53-2.37.63.85-.5 1.5-1.3 1.8-2.23-.8.46-1.66.8-2.6.98-.75-.8-1.8-1.28-3-1.28-2.26 0-4.1 1.8-4.1 4.04 0 .3.04.62.1.92-3.4-.17-6.42-1.78-8.44-4.22-.4.6-.6 1.3-.6 2.03 0 1.4.72 2.64 1.82 3.36-.67-.02-1.3-.2-1.86-.5v.05c0 1.95 1.4 3.6 3.3 3.96-.36.1-.7.14-1.1.14-.26 0-.5-.03-.77-.07.52 1.6 2.03 2.8 3.83 2.8-1.4 1.1-3.17 1.78-5.1 1.78-.32 0-.65-.02-.97-.06 1.8 1.14 3.97 1.8 6.3 1.8 7.53 0 11.65-6.15 11.65-11.5V12c.8-.57 1.5-1.28 2.05-2.1z"/>
</svg>