<svg xmlns="http://www.w3.org/2000/svg" viewBox="0 0 1000 492">
    <g fill="#999">
        <path d="M0 0h1000v492H0V0m9.54 8.38c.15 158.06.04 316.1.05 474.17 137.4.12 274.9 0 412.4.05 189.8-.04 379.6.06 569.4-.05 0-158.06-.1-316.1 0-474.16-32.2-.3-64.4-.1-96.5-.1H554c-181.5 0-362.98-.2-544.46 0z"/>
        <path d="M944.44 13.55c3.3-.72 7.1-1.8 10.27-.07 1.9 4.96 2 10.55 4.3 15.46.7-5.22 1.5-10.45 2.8-15.57 3.3-.05 6.6-.04 9.9-.1.2 10.17.2 20.36.1 30.55l-6.2-.16c0-5.62.4-11.27-.3-16.86-1 5.67-2.5 11.24-3.7 16.9l-5.8.06c-1.5-4.95-1.6-10.25-3.5-15.07-.8 4.8-.6 9.8-.5 14.6-2.2 1.1-4.7 1-7 .2V13.4zm-24.9 7.25c-.3-2.5-.14-5.02-.06-7.52 7.32.06 14.64.1 21.97-.02 1.25 2.72.85 5.56-.23 8.25l-6.37-.1c-.7 7.4-.2 14.8-.28 22.2-2.68.9-5.5.9-8.18.1-.2-7.4.5-14.8-.5-22.2-2.1-.3-4.7.8-6.4-.6zM72.5 20.47c9.4-.3 18.84-.25 28.26-.03l-.12 7.22c-5.98-.05-11.96-.08-17.94 0-.1 4.66-.02 9.32-.07 14 5.5 1.36 11.18.4 16.75.75.12 2.5-.1 4.9-.83 7.3-5.12-.2-10.25-.1-15.38-.1-.9 5.2-.43 10.4-.44 15.6l1.18 1.4c5.7.2 11.3 0 17 .1 0 2.4 0 4.8-.1 7.2-9.3-.1-18.7 0-28.1 0-.1-17.7 0-35.4 0-53.1zm-41.96-.07c11.7-.2 23.4-.14 35.1-.02-.04 2.67-.05 5.35-.06 8.02-4.3.03-8.6-.08-12.87.23 0 15 .1 30 0 45l-9.2-.03V28.57c-4.3-.24-8.5-.13-12.8-.18v-8zm79.98.04c9.1-.26 18.24-.16 27.36-.07-.05 2.42-.1 4.84-.12 7.26-5.16.04-10.32-.1-15.48 0-1.2-.2-1.73 1.22-1.9 2.15-.95 3.8-.43 7.72-.54 11.57 5.42 1.95 11.3.6 16.92 1 .07 2.16.1 4.3.12 6.47-5.67 0-11.34-.06-17 .03-.03 5.88-.33 11.8.73 17.6 6 .04 12 .1 18-.04 1 2.4 1 5 .1 7.4-9.3-.3-18.7 0-28.1-.1 0-17.7.1-35.4 0-53.1zm37.1.06c4.9-.32 9.8-.2 14.7-.15 3.2 8.7 6.46 17.38 9.73 26.05 1.34 3.65 3.12 7.1 5.13 10.42.57-12.14.08-24.3.3-36.45 3.08-.08 6.17-.08 9.26-.03-.12 17.76-.02 35.52-.05 53.28-4.6-.28-9.2.5-13.7-.37-4.4-10.4-7.7-21.26-11.9-31.78-1-2.2-2.4-4.22-3.5-6.37-.7 12.8-.1 25.66-.4 38.5-3 0-6 0-9 .08-.4-1.53-.9-3.06-.9-4.67 0-16.1.1-32.3-.1-48.5zM26.67 88.55c1.76-.08 3.52-.16 5.28-.17H268c28.8.1 57.58-.2 86.37.15-.06 104.98-.06 209.96 0 314.94-68.45.35-136.92.05-205.38.15-40.8-.1-81.6.2-122.4-.15V88.55m214.8 22.66c-61.7 15.6-123.4 31.3-185.1 46.9-1.3.5-2.5.9-3.8 1.4 6.8 22.6 12 45.7 18.8 68.3 1.4-.2 2.9-.3 4.3-.7 24.8-6.5 50-11.9 74.7-18.9 3.2 6.8 4.1 14.4 6.3 21.5 14.2 53.3 28.1 106.6 42.3 159.8.5 2 .6 4 .8 6 3.5.3 6.7-1.3 10-2 26.5-7.1 53.2-13.9 79.7-21.2-15.7-61-31.5-122.1-47.1-183.2-.2-1.4-.3-2.8-.4-4.2 24.7-6.3 49.5-12.6 74.3-18.5-.1-1.5-.1-3.1-.6-4.5-6.1-21.6-11.4-43.5-17.8-65-18.8 5.4-37.9 9.6-56.7 14.6zm131-22.7c200.4 0 400.8-.1 601.2 0-.1 84.6 0 169.1-.1 253.6-.1 20.8.2 41.6-.2 62.3-200.3-.1-400.6 0-600.9 0-.4-105.2-.1-210.5-.2-315.8m120.1 125.3v8.8c2 .1 4 .1 6 .2.1-3 .2-6 .1-9l-6.1.1m-61 0c-.1 21.6-.1 43.2 0 64.7h6.2c.2-19-.3-38 .2-57 1.4 3.8 3.2 7.4 4 11.4 3.8 14.7 8 29.4 11.9 44.1.7 2.3 3.2 1.6 5 1.6 1.9-.3 2-2.4 2.5-3.9 4.5-15.4 8.9-30.9 13.5-46.3 1 1.5 1.5 3.1 1.5 4.8v45.3c2.3.1 4.7.1 7-.2-.1-21.4-.1-42.7 0-64.1-3.2-.4-6.5-.3-9.7-.3-5.2 17.3-10.3 34.5-15.2 51.8-.4 1.5-1.7 2.4-2.7 3.4-.2-2.5-.2-5.1-.7-7.6-4.3-15.6-8.7-31.2-12.9-46.8-3.6-1.1-7.3-.7-10.9-.7m76.9.8c.2 21.1.2 42.1 0 63.1 2 .9 4.2 1.1 6.4.3-.2-21.2-.2-42.4 0-63.6-2.1-.8-4.4-.7-6.4.2m40-.7c0 7.3.2 14.7-.1 22-2.5-1.8-4.8-4-7.7-5-5.1-1.2-10.6 1.2-13.5 5.4-3.5 5.3-5.2 11.6-4.8 17.9-.5 8.3 1.8 17.8 8.9 22.9 3 2.5 7.1 2 10.7 1.7 2.3-.8 4.1-2.5 6.2-3.8.5 1.2 1.1 2.4 1.8 3.6 1.8.1 3.7.1 5.5.1 0-21.4-.1-42.8 0-64.3-2.4-.4-4.7-.5-7.1-.4m35.8 0c.1 1.4.3 2.8.5 4.2 4.8 15.3 9.3 30.7 14 46 1.5 4.9 2.7 9.9 4.8 14.6 2.2-.1 4.5-.1 6.8 0 6-18 11.6-36 17.4-54 1.2-3.5 2.5-7.1 3-10.8-2.4.3-6.4-1.1-7.3 2.1-5.2 17-10.7 33.8-15.6 50.8-.6 1.2-1.3 2.3-2 3.5-2-11.4-6-22.4-8.9-33.6-2.4-7.6-3.9-15.4-6.7-22.8l-6.1.1m51.1-.1c-.1 3-.1 6 0 9.1 1.9-.1 4 .1 5.9-.5.2-2.5.2-5 .2-7.4-1.5-2-4.1-1-6.2-1.3m56.3.8c.1 21.1.1 42.2 0 63.2 2.2.7 4.6.9 6.9.7-.1-21.5-.1-43 0-64.5-2.3-.3-4.7-.1-6.9.6m65.1 22.7l-1-5.8-5.1.1c-.1 15.7-.2 31.3 0 46.9 2-.1 4.1-.1 6.1-.3-.1-9 0-18.1-.1-27.2-.1-4.4 1-9.2 4.5-12.1 2.3-2.3 6.1-1.6 9.1-1.2 3.1 2 4.4 5.8 4.4 9.3 0 10.5 0 20.9-.1 31.4 2.1 0 4.2 0 6.2-.1v-33.3c.2-3.9-1-7.9-3.5-10.9-5.7-5.8-16.7-4.5-20.2 3.2m-264-5.8c0 15.4.2 30.7-.1 46 2 .7 4.2.8 6.3.7-.1-15.6.1-31.2 0-46.8-2 .1-4.1.1-6.1.2m142.4-.1c0 15.3.1 30.7 0 46.1 2.1.4 4.8 1.5 6.6 0 .2-15.4.1-30.8.1-46.2-2.2 0-4.4 0-6.6.1m28.4-1c-5 1.4-9.3 5.2-11.8 9.8-3.2 6-1.9 13.1-2.1 19.6-.1 9.4 7.5 20.1 17.8 18.7 7.5.8 13.7-5.6 15.8-12.3 2.4-8.7 2.7-18.6-1.6-26.8-3.4-6.4-10.8-10.4-18-9m51 3.3c-7.6 6.5-8.3 17.4-7.5 26.6.66 7.6 5.2 15.3 12.6 17.8 4.8.3 10.3 1.3 14.6-1.7 4.1-2.7 7-7.3 7.2-12.2-2.1-.1-4.1-.1-6.1-.1-1.6 4.1-4.9 8.8-9.8 8.3-4.4.8-7.7-2.6-10.1-5.8-2-2.8-1.5-6.3-1.7-9.5 9.4 0 18.9-.1 28.3.1.8-8.1-.6-17.4-7-23-5.4-5.5-14.8-5.2-20.5-.4m80.8.9c-3.7 3.4-5.2 8.5-6.2 13.2-.6 7.2-.8 14.8 2.5 21.5 2.4 5.8 8.4 10.1 14.8 9.2 8.8.7 15.5-8.5 14.8-16.7-1.8-.3-3.5-.5-5.3-.8-1.3 4.7-3.4 11.7-9.5 11.3-4.6.9-8.1-2.8-9.6-6.7-3-7.3-2.5-15.9.4-23.2 2.2-3.8 6.7-7.6 11.3-5.6 3.7 1.3 5.4 5.1 6.5 8.7l5.7-.3c.3-5.6-3.4-11.4-8.58-13.6-5.6-2.8-12.8-1.3-17.1 3.1m36.6.6c-5.2 5.4-6.4 13.3-6.1 20.5-.3 6.2 1.1 12.7 5.2 17.4 4.8 5.8 13.6 7.8 20.3 4.3 5.5-2.1 7.9-7.8 9.7-13-2.3-.2-4.6-.3-6.9-.3-1.5 4.1-4.8 8.8-9.7 8.4-4.4.8-7.7-2.6-10.1-5.8-2-2.7-1.5-6.3-1.7-9.4 9.4 0 18.9-.1 28.3 0 .9-8.3-.7-17.8-7.5-23.3-6-5.6-16.2-4.5-21.6 1.5z"/>
        <path d="M537.45 236.67c6.9-.72 11.44 7.16 11.18 13.28-.27 6.7 1.6 14.6-3.6 19.94-2 2.9-5.74 3-8.92 2.4-6.9-4-8-13.1-7.6-20.3.5-6 2.4-13.6 9-15.4zm127.05.15c3.44-1.06 6.94.92 9.27 3.34 3.46 3.74 4.04 9.05 4.57 13.9-.05 6.7-1.67 14.52-7.95 18.2-3.6.62-8 1-10.5-2.23-5.4-4.84-4.8-12.55-4.6-19.1-.1-5.9 3.2-12.3 9.1-14.1zm56.58.6c3.4-1.96 7.6-.34 10.23 2.18 2.9 3.22 4.4 7.52 4.3 11.8-7.4 0-14.8-.02-22.1 0-.6-5.6 2.2-11.92 7.7-13.98zm119-.02c3.2-1.84 7.07-.46 9.7 1.72 3.17 3.22 4.78 7.8 4.8 12.27-7.4 0-14.8-.1-22.2 0-.6-5.6 2.12-12 7.7-14zm24.65 174.2c2.56-.05 5.12-.04 7.7-.06 1.03 5.4.78 10.88.72 16.34 3.22.02 7.42-1.67 9.9 1.2 3.5 3.28 2 8.65 2.8 12.9 1.06 4.8-.34 9.6-.34 14.44 0 3.1-.5 6.64-3.4 8.46-3.6 2.2-7.7-1.36-11.4.26-1.9.52-3.9.34-5.9.36v-53.9m8.8 21.82c-.5 1.8-1 3.63-.9 5.53.1 7.12-.2 14.25.2 21.36h4.4c1.7-8.8 1.8-17.9.2-26.7-1.2 0-2.5-.1-3.7-.1zM161.8 422.6c3.87-6.63 14.02-7.9 19.8-3.1 3.64 3.24 3 8.55 3 12.95-2.6.73-5.27.98-7.8-.17-.07-2.88.1-5.97-1.7-8.43-1.64-.6-3.43-.27-5.14-.36-.7 2-1.6 4.1-1.4 6.4.05 10-.04 19.9.03 29.9-.2 2.4 1.7 4.2 3.6 5.4 4.6-1.6 4.8-6.9 5.5-10.9 2.3.3 5.4-1 6.9 1.3 0 4.5.5 10.2-3.5 13.2-5 3.4-12 3-16.9-.3-2.9-2.3-3.8-6.3-4.4-9.8-.1-8.7 0-17.4-.1-26.1-.1-3.6.6-7.1 2-10.4zm357.15-.84c1.85-3.8 6.53-4.65 10.3-5.13 4.03.02 8.65.5 11.57 3.57 3 3.03 1.53 7.68 1.9 11.5-2.7 0-5.37 0-8.06-.08-.33-2.3.63-5.2-1.3-6.97-1.5-1.85-5.13-1.85-6.26.44-3 5.8-2.2 12.5-2.28 18.9.15 6.1-.87 12.6 1.82 18.4 1.42 2.8 5 2.2 7.54 1.8 1.8-4.6.72-9.7.97-14.5-1.9-.4-3.76-.8-5.62-1.3.07-2 .1-4 .1-6 4.3-.1 8.65-.1 12.98-.1.2 9 0 18 .1 27.1-5.9 1.1-12.3 3.1-18.2.6-2.5-.9-5-2.6-6-5.2-1.8-5.5-1.9-11.3-1.7-17.1.3-8.8-1-17.9 2.3-26.3zM221.3 417.4c3.44.03 6.9 0 10.33.03 2.7 12.2 4.94 24.5 7.5 36.74 1-4 .73-8.12.7-12.18-.1-8.2 0-16.4-.06-24.5 2.6-.1 5.24-.1 7.87-.1.03 17.4-.02 34.8.03 52.3-3.94.1-7.87.1-11.78-.1-1.9-13.4-5.8-26.4-6.8-39.8-.5 3.3-1.5 6.7-1.4 10.1.1 9.9 0 19.8.1 29.8h-6.5v-52.4zm30.22.07c8.95-.03 17.9-.2 26.86.1l-.1 6.68c-3 .06-5.98.07-8.96.05 0 13.26-.05 26.5 0 39.77.07 2.17-.47 4.28-.85 6.4-2.62-.03-5.26-.03-7.9-.02-.08-15.28-.1-30.57.02-45.85-3-.97-6-1.03-9.1-1.02v-6.1zm30.08.03c7-.13 14-.12 21.02-.02l-.1 6.18c-4.26.03-8.5-.02-12.74.06-.03 5.5-.08 11 .03 16.5 4 .06 8 .03 12 .06-.1 2.1.3 4.3-.4 6.3-3.8.07-7.7-.05-11.6.07 0 5.62.1 11.24 0 16.87 4.3.18 8.6.1 12.8.1.1 2.27 0 4.55 0 6.83-6.9-.14-13.9.33-20.9-.28.1-17.56.1-35.12 0-52.67zm25.02 0c3.9-.1 7.8-.14 11.7.08.2 6.26 2.22 12.26 3.2 18.42 1.1 7.15 3.14 14.1 4.6 21.2.8-13.23.02-26.52.25-39.77 2.44-.02 4.88 0 7.32.05 0 17.38-.2 34.78.1 52.16-3.6 1.4-7.4.64-11.1.86-3.2-11.36-4.7-23.15-7.1-34.7-.6 1-1.3 2-1.2 3.2-.5 10.5.7 21.07-.5 31.48l-7.2-.08c-.1-17.63 0-35.26-.1-52.9zm76.2 0c5.7-.1 11.43-.2 17.15.03 3.9.16 7.1 3.66 7.4 7.48.17 3.7.1 7.4.06 11.1.1 3.3-2.6 5.6-4.3 8 1.57 1.8 4.2 3.4 4.2 6 .05 6.9-.07 13.7.1 20.5h-7.97c-.45-6.1.28-12.2-.4-18.3-.6-3.7-4.27-5.2-7.68-4.6-.15 7.7 0 15.3-.08 23-2.86.1-5.7.1-8.5 0-.08-17.6 0-35.2-.08-52.9m8.63 6.7c-.13 5.6-.12 11.2 0 16.7 2.43-.1 5.27.3 7-1.9.9-4.4.3-8.9.33-13.4-2.26-1.2-4.82-1.3-7.33-1.4zm32.22-6.7c3.2 0 6.4 0 9.63.2.33 4.5 1.6 8.9 2.44 13.3 2.5 11.5 4.7 23 7.33 34.4.4 1.7.5 3.4.62 5.2h-7.9c-.9-4.3-1.9-8.6-2.5-13-3.6 0-7.2 0-10.8-.1-1.3 4.2-2 8.6-2.4 13-3 .1-5.9.1-8.8 0 4.4-17.6 7.9-35.3 12.2-52.9m.6 33.2c2.4-.1 4.9-.1 7.4-.2 0-3.4-.8-6.6-1.5-9.9-.9-3.4-.5-7.1-2.1-10.3-2.5 6.6-3.8 13.6-3.8 20.5zm15.3-33.1c8.7-.2 17.4-.1 26.1-.1-.1 2.3-.1 4.6-.2 6.9h-8.1c-.1 15.4 0 30.8-.1 46.1-2.9.1-5.8.1-8.7 0v-46.1h-9l-.2-6.7zm30-.1c2.8 0 5.7 0 8.6.1-.1 17.6 0 35.2 0 52.9-2.9.1-5.7.1-8.5.1-.1-17.7 0-35.3-.1-53zm14 .1c3.8-.1 7.7-.1 11.6.1 1 7.8 3 15.5 4.3 23.2 1 6.1 3.2 11.9 3.4 18.1 1.7-13.7 1.1-27.6 1.1-41.4h6.7v52.3c-3.7 0-7.4 0-11.2-.1-2.4-10-4.2-20.2-6.1-30.4-.4-1.7-1.1-3.3-1.8-4.9-.9 10.9 0 21.8-.4 32.6-.2 1.2-.5 2.3-.8 3.5-2.3 0-4.6-.1-6.9-.1-.1-17.6 0-35.3-.1-52.9zM31 417.7c6.8 0 13.5-.1 20.3.06 0 2 0 4 .1 6-4.4.2-8.8-.13-13 1 .1 5.25-.1 10.5.1 15.7h12v6.37c-4 .1-8.18-.5-12.08.8.1 5.54-.08 11.1.1 16.7 4.05 0 8.1 0 12.13.03 0 1.9 0 3.8-.1 5.7H31v-52.4zm27.3 1.94c3.1-3 7.7-1.97 11.6-2.07 3.7-.3 6.9 2.6 8.3 5.8.3 2.9.2 5.7.2 8.6h-7.1c-.5-2.8-.1-8.5-4.4-8.2-4.7-.6-3.9 5.4-3.6 8.4 3.3 8.5 13.5 12.6 15.6 21.8.97 4.8.36 10.5-3 14.3-5.55 5.1-15.6 4.7-20.2-1.4-1.16-3.6-.4-7.5-.6-11.3h7.26c.1 2.1-.1 4.3.44 6.4.93 1.7 2.64 2.8 4.08 4 1.86-1.5 4.8-2.9 4.53-5.7.5-3.14-.9-6.2-2.9-8.53-4.4-5.77-11.7-9.86-13.3-17.4 0-4.88-1.5-11.2 3.2-14.5zm26.1-1.95c5.4 0 10.9-.2 16.4 0 3.6.1 7.3 2.7 7.5 6.5.3 4.3.3 8.6.1 13-.04 2.7-2.34 4.6-3.6 6.9 1.47 1.8 3.86 3.4 3.53 6.1 0 6.8-.1 13.6.1 20.4l-7.9-.2c-.4-6.5-1.3-12.9-1-19.4.1-3.9-4.4-3.5-7.1-3.4-.1 7.6.1 15.3-.1 22.9-2.6-.4-5.7.7-7.9-.7-.3-17.5 0-34.9-.1-52.4m8.1 6.9c0 5.7-.1 11.4.1 17.1 2.9.2 5.9-.3 7.6-3 .4-4 .4-8.1.1-12.1-1.7-2.6-5.1-3.4-7.9-2.1zm22.7-6.9c5.8 0 11.7-.2 17.6.1 3.9.6 6.6 4.5 6.5 8.4-.1 5.7 1.3 12.6-3.4 17 1.3 1.8 3.5 3.5 3.4 6 .2 4.7.2 9.4-.1 14.1-.2 3.9-3.7 7-7.4 7.3-5.6.3-11.1 0-16.6.1-.2-17.6 0-35.3-.1-53m7.8 6c.1 5.4 0 10.9 0 16.3l7.5-.2c1.2-4.4 1.1-9 .5-13.5-1.7-2.9-5.3-2.7-8.1-2.7m.1 22.8c-.1 6.1-.2 12.1 0 18.2 3.3 0 8.1.4 8.8-3.8.2-4.6 1.6-10.2-1.8-14-2.3-.4-4.7-.3-7-.4zm72.8-28.7c3.9-.5 7.9-.4 11.8.1 3.5 1.8 6.4 5.3 6.5 9.4.4 9.6.1 19.3.2 28.9 0 4.6-.5 10-4.7 12.9-4.44 2.8-10.3 3.5-15.1 1.1-4.3-1.7-6.5-6.5-6.4-10.9v-28c-.46-5.5 1.93-11.8 7.66-13.4m2.4 6.8c-1.2 1.5-2 3.5-1.9 5.6v28.9c.2 2.7 2 6.4 5.3 5.7 3.3.2 4.5-3.8 4.6-6.5v-27c.1-2.9-.8-6.1-3.5-7.5-1.5.1-3.5-.5-4.5.9zm139.1-.1c-.1-2.3-.1-4.5-.1-6.8 8.6 0 17.3-.1 25.9 0l.1 6c-2.9.8-8-1.5-8.8 2.5-.3 14.8 0 29.7-.2 44.5h-8c-.1-15.4 0-30.8-.1-46.2h-9zm364.7 3.3c2.6.1 5.2.1 7.9.1.1 4.2 1.4 8.2 1.4 12.4.3 3.6.4 7.4 2.4 10.5 1.5-7.3 2.2-14.8 3.7-22.2 2.7-.1 5.4-.1 8.1-.1 2.3 6.4 1.6 13.4 3.7 19.9.6 1.9 1.1 3.8 1.6 5.8.3-8.7 1.2-17.3 3-25.8l6.7.1c-.1 7.3-2.4 14.3-3.7 21.5-1.3 5.3-1.7 10.8-3.8 15.8-2.6-.1-5.2-.1-7.8-.1-1-5.2-1.7-10.4-2.2-15.6 0-2-1.1-3.7-2.7-4.7-.6 1.9-1.1 3.9-1.2 5.9-.4 4.9-2.1 9.5-2.3 14.4-2.9 0-5.8 0-8.7-.1-1.8-10.9-4.1-21.8-6.1-32.6-.3-1.7-.3-3.4-.3-5.1zm98.6 2.4c3.1-3.4 8.2-2.6 12.4-2.1 2.8 1.7 5.5 4.2 5.8 7.6.4 4.6.1 9.3.1 13.9-4.1.1-8.3 0-12.5.1-1.4 3.1-.2 6.9-.5 10.2 1.7 0 3.7.6 5.1-.6.3-2.1.3-4.2.3-6.4h7.6c.5 4.6 0 10.6-5.2 12.3-4.7 1.2-10.8 1.5-14.5-2.4-2.9-4.9-1.8-11-2-16.5.2-5.4-1-12 3.4-16.1m5.8 2.4c-1.6 3.4-1.3 7.3-1.4 11 2.3.1 4.6.1 6.9 0-.1-2.7.1-5.3-.2-8-.8-2.3-3-3.2-5.3-3zm105.8-4.6c3.9-.6 8.6-1 11.8 1.9 1.9 1.9 3.2 4.5 3 7.2V456c.1 5.4-4.9 10.36-10.3 9.5-4.8.84-10.3-2.53-10.5-7.63 0-7.6-.1-15.2 0-22.8.2-3.4 3.1-5.8 6-7.3m1.4 7.7c-.6 4.8 0 9.7-.2 14.5.1 2.9-.6 6 .9 8.6.8 1.9 3.1.7 4.6.9.1-8.65.1-17.3 0-25.95-2-.1-4.8-.6-5.4 2zm-86.6-6.3c2.9-2.5 7-1.8 10.5-1.5 2 1.1 4.7 2.6 4.7 5.24.1 2.2.1 4.5.1 6.8-2.4 0-4.8-.1-7.2-.2 0-2.1-.1-4.1-.1-6.2-1.3.3-2.8-.1-3.9.8-.1 1.6-.2 3.2.2 4.7 3.1 4 7.5 6.8 10.5 10.8.6 3.9.6 8-.1 11.9-1.7 2.4-4.3 4.3-7.3 4.1-3.7.3-7.5.1-10.1-2.8-1-3.4-.4-7-.6-10.4h6.4c-.1 3-.6 8.2 3.7 8.1 2.1-1.9 1.1-5.3 1-7.8-3-4.1-8.2-6-10.7-10.5-.2-4.3-1.6-10 2.7-12.8zm28.6.8c1.2-1.9 3.3-2.7 5.5-2.7 0 2.4.1 4.8.1 7.2-1.7.7-3.7 1-5 2.3-1.7 2.1-1 4.8-1.1 7.25-.1 7.2.3 14.36-.3 21.5-2.2.1-4.5.14-6.7-.04-.6-12.4-.1-24.8-.2-37.2 2.5.4 6.2-1.1 7.6 1.8zm76.6 15c.3-5.8-.9-11.9 1-17.6 2.5.1 5.4 0 7.1 2.4 1.4-1.7 3.4-2.5 5.7-2.4l.1 7c-1.9.8-4 1.4-5.7 2.63-.6 1.2-.4 2.65-.4 4 .1 8.1 0 16.3 0 24.4-2.4.1-4.8.15-7.2.2-1.6-6.7-.5-13.7-.8-20.5zm16.9-10c-.3-3.1 1.7-6.06 4.4-7.4 2.8-.54 5.7.1 8.1 1.7 2.3-1.28 5-1.1 7.6-1.1.1 13.94.1 27.92 0 41.9.5 3.74-2.4 7.1-5.8 8.26-3.3.5-7 .7-10.1-.6-3.4-1.7-3.9-5.8-4.6-9.1 2.5-1.3 5.4-1.1 8.2-1.1.1 1.9.1 3.9.3 5.8 1.4 0 2.9.1 4.3.1.3-3.7.5-7.4 1.4-11-3.4 1.6-7.2 1.3-10.9 1.3-1.4-2-3.5-4-3.2-6.67v-22.2m8.1-1.4c-1.1 8.3-1 16.6.2 24.8l3.7.3c1-2.7 1.9-5.6 1.8-8.5-.1-5.6.6-11.5-1.7-16.7l-4 .2zm-296-5.15c2.4 0 4.9.1 7.3.2.4 2.6.9 5.1.9 7.7.2 5.8 2.2 11.3 2.4 17.1l1.4.2c-.3-8.5 1.6-16.8 2.9-25.1h8.6c1.3 8.3 2.9 16.7 3.2 25.1h1.4c.6-8.4 2.1-16.7 3.3-25h7.3c-1.7 12.2-4.9 24.3-7.1 36.5-3 .1-6 .1-9-.1-.4-8.4-2.7-16.6-2.3-25.1h-1c-1.2 8.6-2.9 17.2-4.7 25.7-2.5 0-5.1 0-7.6.1-2.7-8.9-3.5-18.1-5.5-27.1-.9-3.4-.8-6.9-1-10.3zm82.9.1h7.4c1.7 8.2 1.8 16.7 3.5 24.9 2-8.2 2.6-16.7 4.4-24.9h8.2c1.7 8.3 2.9 16.6 3.2 25.1 3.2-7.8 2.7-16.4 4.7-24.4 2.2-1.1 4.8-.4 7.2-.5-1.8 12.5-4.7 24.9-7.4 37.3-2.8-.6-6.9 1.3-8.6-1.6-.9-8.1-1.4-16.4-3.8-24.3-1.1 7.7-2.4 15.4-3.7 23.1-.4 4.4-5.5 2.3-8.5 2.8-2.4-9.7-3.6-19.5-5.7-29.2-.6-2.7-.6-5.4-.8-8.1zm39.3 28.1c3-.1 6-.1 9 0v9.1c-2.9 0-5.8.1-8.7-.1-.5-3-.3-6-.3-9zm107.9-.1c3.1 0 6.2 0 9.3.1v9.1c-3.1 0-6.1 0-9.2.1-.1-3.1-.1-6.1-.1-9.2z"/>
    </g>
    <g fill="#1b1818">
        <path d="M9.54 8.38c181.48-.22 362.97-.03 544.46-.1h341c32.17.07 64.35-.12 96.52.1-.13 158.06-.03 316.1-.05 474.17-189.82.1-379.65 0-569.47.05-137.47-.04-274.94.07-412.4-.05-.02-158.06.1-316.1-.06-474.17m934.9 5.17c.06 10 .06 20.02 0 30.03 2.33.83 4.77.9 7.03-.2-.14-4.9-.36-9.84.48-14.7 1.96 4.83 2.04 10.13 3.55 15.08l5.8-.07c1.2-5.7 2.7-11.3 3.76-16.9.7 5.6.28 11.2.3 16.8l6.23.1c.1-10.2.1-20.4-.1-30.6-3.3 0-6.6 0-9.9.1-1.3 5.1-2.1 10.3-2.8 15.6-2.3-4.9-2.4-10.5-4.3-15.5-3.2-1.8-7-.7-10.3 0m-24.9 7.2c1.7 1.4 4.3.3 6.4.6 1 7.3.2 14.8.4 22.2 2.7.8 5.5.8 8.2-.1.1-7.4-.4-14.9.2-22.2l6.4.1c1-2.7 1.4-5.6.2-8.3-7.3.1-14.7.1-22 0-.1 2.5-.3 5 0 7.5m-847-.2c.1 17.7-.1 35.4.1 53.1 9.3 0 18.7-.1 28.1 0 0-2.4.1-4.7.1-7.1-5.7-.1-11.3.1-17-.1l-1-1.1c0-5.2-.5-10.4.4-15.5 5.1 0 10.2-.1 15.4.1.7-2.3.9-4.8.8-7.2-5.6-.3-11.3.6-16.8-.7v-14h17.9l.1-7.2c-9.4-.2-18.9-.2-28.3.1m-41.9 0v8c4.3.1 8.5-.1 12.8.2v45h9.3c.1-15 0-30 0-45 4.2-.3 8.5-.2 12.8-.2v-8.1c-11.7-.1-23.4-.2-35.1 0m80 0v53.2c9.3.1 18.7-.2 28.1.1.8-2.4.9-5-.1-7.3-6 .1-12 0-18 0-1.1-5.8-.8-11.7-.8-17.6 5.6-.1 11.3 0 17 0 0-2.2-.1-4.3-.1-6.5-5.6-.4-11.5.9-16.9-1 .1-3.9-.4-7.8.5-11.6.1-1 .7-2.4 1.9-2.2 5.1-.1 10.3 0 15.4 0l.1-7.3c-9.2-.1-18.3-.2-27.4.1m37.1 0c.1 16.1 0 32.3 0 48.5 0 1.6.5 3.1.9 4.7 2.9-.1 5.9-.1 8.9-.1.2-12.9-.3-25.7.4-38.5 1.1 2.1 2.4 4.2 3.4 6.3 4.1 10.5 7.5 21.4 11.8 31.8 4.4.9 9.1.1 13.6.4 0-17.8-.1-35.5.1-53.3-3.1-.1-6.2-.1-9.3 0-.2 12.1.3 24.3-.3 36.4-2-3.3-3.7-6.8-5.1-10.4-3.3-8.7-6.5-17.4-9.7-26.1-4.9 0-9.8-.1-14.7.2m-120.4 68c0 105 0 210-.1 314.9 40.8.4 81.5.1 122.3.2 68.4-.1 136.9.2 205.3-.1-.1-105-.1-210 0-315-28.8-.4-57.6-.1-86.4-.2h-236c-1.8 0-3.6.1-5.3.1m345.8-.1c.1 105.3-.2 210.5.1 315.8 200.3 0 400.6-.1 600.9 0 .5-20.8.1-41.5.2-62.3 0-84.5 0-169.1.1-253.6-200.4-.1-400.8-.1-601.2 0m492.4 323.2V465c2-.1 4 .1 5.9-.4 3.7-1.6 7.9 1.9 11.5-.3 2.9-1.8 3.4-5.4 3.4-8.5 0-4.9 1.4-9.7.4-14.5-.8-4.3.7-9.7-2.8-13-2.5-2.9-6.7-1.2-9.9-1.2 0-5.5.3-11-.7-16.4h-7.7m-703 11c-1.5 3.3-2.2 6.8-2.1 10.4.1 8.7-.1 17.4 0 26.1.6 3.5 1.4 7.46 4.4 9.75 4.9 3.23 11.9 3.7 16.9.24 4.1-3 3.5-8.7 3.5-13.2-1.5-2.3-4.6-1-6.9-1.3-.7 4-.9 9.3-5.6 10.8-1.9-1.2-3.8-3-3.6-5.4-.1-10 0-20-.1-29.9-.2-2.3.7-4.4 1.4-6.5 1.7.1 3.5-.2 5.2.4 1.8 2.4 1.6 5.5 1.7 8.4 2.5 1.1 5.2.9 7.8.1 0-4.4.6-9.7-3-12.9-5.8-4.8-15.9-3.5-19.8 3.1m357.1-.9c-3.3 8.4-2 17.5-2.2 26.3-.1 5.7-.1 11.5 1.7 17 .9 2.6 3.4 4.3 6 5.2 5.9 2.4 12.3.4 18.3-.7-.2-9 0-18.1-.1-27.1-4.4 0-8.7 0-13 .1 0 1.9-.1 3.9-.1 5.9 1.8.5 3.7 1 5.6 1.3-.3 4.8.8 9.9-1 14.5-2.6.4-6.1 1-7.6-1.8-2.7-5.8-1.7-12.3-1.8-18.4.1-6.3-.7-13.1 2.3-18.9 1.1-2.3 4.7-2.3 6.2-.5 2 1.8 1 4.7 1.3 7 2.7.1 5.4.1 8.1.1-.4-3.8 1.1-8.5-1.9-11.5-2.9-3.1-7.6-3.5-11.6-3.6-3.8.4-8.5 1.3-10.3 5.1m-297.5-4c0 17.5.1 34.9 0 52.4 2.2 0 4.3.1 6.5 0 0-9.9.1-19.9-.1-29.8-.1-3.4.9-6.7 1.4-10.1 1 13.5 4.9 26.5 6.8 39.8 3.9.2 7.8.2 11.8.1-.1-17.4 0-34.8-.1-52.3-2.63 0-5.26 0-7.9.1.06 8.2-.03 16.4.07 24.5 0 4.1.3 8.2-.7 12.2-2.6-12.2-4.8-24.5-7.5-36.7h-10m30.2.1v6.1c3 0 6.1.1 9 1.1-.18 15.2-.1 30.5 0 45.8h7.9c.3-2.1.9-4.3.8-6.4-.08-13.3 0-26.5 0-39.8 2.93 0 5.92 0 8.9-.1l.1-6.7c-8.97-.2-17.9-.1-26.9-.1m30.1 0c.1 17.6.06 35.1 0 52.7 6.95.6 13.94.1 20.9.3.04-2.3.05-4.5 0-6.8-4.24 0-8.5.1-12.8-.1.1-5.6 0-11.2.1-16.9 3.83-.1 7.7 0 11.6 0 .7-2 .3-4.2.43-6.3h-12c-.1-5.5-.04-11 0-16.5 4.25-.1 8.5 0 12.74 0 0-2 0-4.1.1-6.1-7.1-.1-14.1-.1-21.1 0m25 0c.1 17.6 0 35.2 0 52.9l7.26.1c1.25-10.4 0-21 .52-31.5-.1-1.2.5-2.2 1.2-3.2 2.4 11.5 3.9 23.3 7.1 34.7 3.7-.2 7.5.5 11.1-.9-.3-17.4-.1-34.8-.1-52.2-2.5-.1-4.9-.1-7.3-.1-.3 13.3.5 26.6-.3 39.8-1.5-7.1-3.5-14-4.6-21.2-1-6.1-3-12.1-3.2-18.4-3.9-.2-7.8-.2-11.7-.1m76.2 0c.1 17.7 0 35.3 0 52.9 2.8.1 5.6.1 8.5.1.02-7.7-.1-15.3.02-23 3.4-.5 7.1 1 7.7 4.7.7 6.1 0 12.3.4 18.4h7.9c-.1-6.8 0-13.7-.1-20.5 0-2.7-2.6-4.2-4.15-6 1.7-2.5 4.4-4.8 4.3-8 .1-3.7.1-7.4-.04-11-.3-3.9-3.5-7.4-7.4-7.5-5.7-.3-11.5-.1-17.2 0m40.8-.1c-4.3 17.6-7.9 35.3-12.3 52.9 2.9.1 5.9.1 8.8-.1.4-4.4 1.1-8.7 2.3-12.9 3.6.1 7.2.1 10.8.1.6 4.3 1.7 8.6 2.5 13 2.6-.1 5.2 0 7.9 0-.2-1.8-.2-3.5-.6-5.2-2.7-11.5-4.9-23-7.4-34.5-.9-4.4-2.1-8.8-2.5-13.3-3.2-.1-6.4-.1-9.7-.1m16 .1l.1 6.7h9v46.1c2.9.1 5.8.1 8.7.1.1-15.4 0-30.7 0-46.1h8c.1-2.3.2-4.6.2-6.9-8.7 0-17.4-.1-26.2.1m30-.1c.1 17.7 0 35.4 0 53 2.8 0 5.7 0 8.5-.1v-52.8c-2.8-.1-5.7-.1-8.6-.1m14.1.1c.1 17.6 0 35.3.1 52.9 2.3.1 4.5.1 6.8.1.3-1.1.5-2.3.7-3.4.4-10.9-.4-21.8.4-32.6.7 1.6 1.4 3.2 1.8 4.9 2 10.1 3.8 20.3 6.1 30.4 3.7.1 7.4.1 11.2 0-.1-17.5-.1-34.9 0-52.3-2.2-.1-4.4-.1-6.7-.1-.1 13.8.6 27.6-1.1 41.4-.2-6.2-2.4-12.1-3.4-18.2-1.4-7.7-3.4-15.4-4.4-23.2-3.9-.1-7.7-.1-11.6 0m-452-.2v52.3h19.7V464h-12c-.2-5.6 0-11.1-.1-16.7 3.9-1.2 8-.6 12-.8v-6.3H38.7c-.16-5.2 0-10.5-.1-15.7 4.23-1.1 8.64-.8 13-1-.07-2-.1-4-.1-6-6.8-.2-13.6-.1-20.38-.1m27.34 2c-4.63 3.3-3.13 9.6-3.13 14.5 1.57 7.6 8.86 11.7 13.28 17.4 2 2.4 3.4 5.4 2.9 8.6.3 2.9-2.6 4.2-4.5 5.8-1.4-1.2-3.1-2.2-4-4-.5-2.1-.3-4.3-.4-6.4h-7.2c.2 3.7-.5 7.7.6 11.3 4.6 6.1 14.7 6.5 20.2 1.5 3.4-3.8 4-9.5 3-14.3-2-9.2-12.2-13.3-15.5-21.8-.3-3-1.1-9 3.6-8.4 4.3-.3 3.9 5.4 4.4 8.2h7.2c0-2.9.1-5.7-.2-8.6-1.4-3.2-4.6-6-8.3-5.7-3.9.1-8.5-.9-11.6 2.1m26.1-1.9c.1 17.5-.1 34.97.1 52.4 2.2 1.4 5.3.37 7.9.7.2-7.63 0-15.3.1-22.93 2.7-.1 7.2-.5 7.1 3.4-.3 6.5.7 12.9 1 19.4 2.6.08 5.3.1 7.9.16-.3-6.8-.1-13.6-.2-20.4.3-2.6-2-4.3-3.5-6.1 1.3-2.24 3.6-4.2 3.6-6.9.3-4.36.3-8.7 0-13-.3-3.8-4-6.47-7.6-6.55-5.4-.2-10.9-.08-16.4-.08m30.9 0c.1 17.7-.1 35.3.1 53 5.6-.1 11.1.2 16.6-.1 3.8-.3 7.3-3.4 7.4-7.3.3-4.7.3-9.4.1-14.1.1-2.5-2-4.2-3.4-6 4.7-4.4 3.3-11.3 3.4-17 .2-3.9-2.6-7.8-6.5-8.4-5.9-.3-11.7-.1-17.6-.1m80.8.1c-5.7 1.6-8.1 7.9-7.6 13.3.1 9.37 0 18.73 0 28.1-.1 4.4 2.1 9.24 6.4 10.9 4.8 2.4 10.7 1.7 15.1-1.07 4.1-2.9 4.7-8.3 4.6-12.9-.1-9.6.3-19.3-.2-28.9-.1-4.14-2.9-7.66-6.5-9.5-3.9-.5-7.9-.5-11.8-.04m141.5 6.7c3 0 6 0 9-.1.1 15.4 0 30.8.1 46.2h8c.3-14.8-.1-29.7.2-44.5.8-4 5.9-1.7 8.8-2.5l-.1-6c-8.6-.2-17.2-.1-25.9 0 0 2.3 0 4.5.1 6.8m364.6 3.2c.1 1.7.1 3.4.3 5.1 2 10.9 4.3 21.7 6.1 32.7h8.7c.2-4.8 1.9-9.5 2.3-14.3.1-2 .7-4 1.2-5.9 1.6 1 2.7 2.8 2.7 4.7.6 5.2 1.2 10.4 2.2 15.6 2.6 0 5.2 0 7.8.1 2.2-5.1 2.5-10.6 3.8-15.9 1.2-7.1 3.6-14.1 3.7-21.4l-6.7-.1c-1.8 8.5-2.7 17.1-3 25.8-.5-1.9-1-3.9-1.6-5.8-2-6.5-1.4-13.5-3.7-19.9-2.7 0-5.4 0-8.1.1-1.5 7.3-2.1 14.8-3.7 22.1-2-3.1-2.1-6.9-2.4-10.5 0-4.2-1.2-8.2-1.4-12.3h-8m98.7 2.4c-4.4 4-3.2 10.6-3.4 16 .2 5.5-.9 11.5 2.1 16.5 3.7 3.9 9.8 3.6 14.5 2.4 5.2-1.7 5.7-7.7 5.2-12.3-2.5-.1-5.1-.1-7.6 0-.1 2.1 0 4.2-.4 6.4-1.4 1.2-3.4.6-5.1.6.3-3.4-.9-7.2.5-10.2 4.2-.1 8.4 0 12.5-.1 0-4.7.3-9.3-.1-14-.3-3.4-3-5.9-5.8-7.6-4.2-.5-9.2-1.3-12.4 2.1m111.6-2.1c-2.8 1.4-5.8 3.8-5.9 7.3-.1 7.6 0 15.2 0 22.8.1 5.1 5.7 8.4 10.5 7.6 5.5.8 10.5-4.1 10.3-9.5v-19c.2-2.8-1.1-5.4-3-7.3-3.2-3-7.8-2.5-11.8-1.9m-85.2 1.4c-4.2 2.7-2.8 8.5-2.7 12.8 2.5 4.4 7.7 6.4 10.7 10.5.1 2.5 1.1 5.9-1 7.8-4.3 0-3.7-5.2-3.6-8.1H825c.13 3.4-.47 7.1.5 10.4 2.6 2.9 6.5 3.1 10.1 2.8 3 .3 5.66-1.7 7.3-4 .7-3.9.7-8 0-11.8-3-4.1-7.4-6.9-10.5-10.8-.3-1.6-.3-3.1-.2-4.7 1.1-.9 2.6-.5 3.86-.8.05 2.1.1 4.1.1 6.2 2.35.1 4.73.2 7.12.2 0-2.3.1-4.6-.1-6.9.04-2.6-2.65-4.1-4.7-5.2-3.5-.2-7.6-1-10.5 1.5m28.7.8c-1.4-2.9-5.1-1.5-7.6-1.8.1 12.4-.3 24.8.2 37.2 2.26.2 4.5.2 6.8.1.6-7.2.1-14.4.23-21.5.2-2.4-.5-5.2 1.1-7.2 1.4-1.3 3.3-1.6 5-2.3 0-2.4 0-4.7-.1-7.1-2.3.1-4.3.8-5.6 2.8m76.5 15.1c.4 6.9-.8 13.9.8 20.6 2.4 0 4.8-.1 7.2-.1V441c.1-1.33-.1-2.76.5-4 1.7-1.23 3.7-1.85 5.7-2.64l-.1-7c-2.2 0-4.2.77-5.7 2.5-1.6-2.4-4.5-2.3-7.1-2.4-1.9 5.7-.7 11.77-1 17.6m16.9-10c-.1 7.4-.1 14.77-.1 22.16-.3 2.6 1.8 4.6 3.2 6.6 3.6 0 7.4.34 10.8-1.27-.9 3.6-1 7.3-1.3 11-1.5 0-3-.05-4.4-.08l-.3-5.8c-2.8-.06-5.6-.2-8.2 1.04.7 3.3 1.1 7.4 4.5 9.1 3.2 1.3 6.8 1 10.1.6 3.4-1.2 6.3-4.5 5.9-8.2.1-14 .1-27.9 0-41.9-2.6 0-5.3-.2-7.6 1.1-2.4-1.6-5.2-2.2-8.1-1.7-2.7 1.3-4.7 4.3-4.4 7.4m-288.4-6.7c.2 3.4 0 7 1 10.3 2.1 9 2.9 18.2 5.6 27.1 2.5 0 5 0 7.6-.1 1.8-8.5 3.4-17 4.6-25.7h1.3c-.3 8.5 1.9 16.7 2.4 25 3 .2 6 .2 9 0 2.2-12.2 5.4-24.2 7.2-36.5H693c-1.2 8.3-2.67 16.7-3.2 25.1H688c-.4-8.4-1.97-16.7-3.2-25h-8.58c-1.25 8.4-3.2 16.7-2.84 25.2l-1.4-.2c-.2-5.8-2.25-11.3-2.4-17.1-.05-2.6-.48-5.1-.95-7.6-2.5-.1-4.96-.2-7.4-.2m82.92.1c.15 2.7.2 5.4.8 8.1 2.1 9.7 3.35 19.6 5.73 29.2 3-.5 8.1 1.6 8.55-2.8 1.3-7.6 2.63-15.3 3.75-23 2.32 7.9 2.8 16.2 3.74 24.3 1.8 2.9 5.83 1.1 8.66 1.6 2.77-12.3 5.67-24.7 7.5-37.2-2.4.2-5.06-.6-7.27.5-2 8.1-1.5 16.7-4.7 24.5-.3-8.4-1.4-16.8-3.2-25-2.7.1-5.5.1-8.2 0-1.8 8.3-2.3 16.8-4.3 25-1.7-8.2-1.8-16.6-3.5-24.9h-7.4m39.3 28.1c0 3-.2 6.1.3 9.1 2.9.2 5.9.1 8.8.1.1-3 .1-6.1.1-9.1h-9m107.9-.1c-.1 3.1-.1 6.2.1 9.3l9.2-.1c.1-3.1.1-6.1.1-9.1-3.1-.1-6.2-.1-9.3-.1z"/>
        <path d="M241.47 111.2c18.86-5.02 37.93-9.26 56.68-14.66 6.4 21.53 11.66 43.4 17.78 65 .5 1.48.53 3.05.6 4.6-24.84 5.9-49.6 12.2-74.36 18.5.08 1.43.2 2.85.4 4.27 15.66 61.1 31.37 122.2 47.1 183.3-26.5 7.3-53.12 14.1-79.66 21.2-3.3.8-6.5 2.4-10 2.1-.2-2-.3-4-.7-5.9-14.1-53.2-28.1-106.5-42.2-159.8-2.2-7.1-3-14.7-6.3-21.4-24.7 7-49.9 12.4-74.7 18.9-1.4.4-2.9.6-4.3.7-6.7-22.6-12-45.6-18.8-68.3 1.2-.4 2.5-.9 3.7-1.3 61.7-15.7 123.4-31.3 185-46.9zM492.5 213.72c2.02-.05 4.05-.08 6.1-.12.06 3 .04 6.03-.1 9.04-2-.07-4-.1-6-.15-.02-3-.02-5.9 0-8.8zm-60.96-.08c3.63.03 7.34-.32 10.88.73 4.13 15.67 8.54 31.25 12.9 46.86.45 2.5.4 5.06.6 7.6 1-1.03 2.3-1.92 2.66-3.4 4.88-17.3 10-34.54 15.17-51.77 3.24-.04 6.5-.12 9.73.33-.07 21.3-.07 42.7 0 64-2.35.2-4.7.3-7.06.2.06-15.1 0-30.2.04-45.3.04-1.8-.45-3.4-1.47-4.8-4.6 15.3-9 30.8-13.5 46.2-.6 1.4-.7 3.6-2.6 3.9-1.8-.1-4.4.7-5.1-1.6-4-14.7-8.1-29.4-12-44.1-.8-4-2.6-7.6-4-11.4-.6 19 0 38-.3 57h-6.2c0-21.6-.1-43.2 0-64.7zm76.86.8c2.04-.87 4.25-1 6.36-.24-.18 21.2-.18 42.4 0 63.6-2.1.78-4.32.63-6.36-.25.23-21.03.23-42.07 0-63.1zm40.03-.74c2.35-.1 4.73-.08 7.06.38-.2 21.42 0 42.84-.1 64.26-1.9 0-3.7.1-5.6-.04-.7-1.15-1.3-2.34-1.8-3.57-2.1 1.25-3.9 2.92-6.2 3.76-3.6.3-7.7.8-10.7-1.7-7.1-5.1-9.4-14.6-8.9-22.9-.4-6.3 1.3-12.7 4.8-17.9 2.9-4.3 8.4-6.7 13.5-5.5 2.9 1 5.2 3.2 7.6 5 .3-7.3.1-14.7.1-22m-11 22.9c-6.6 1.8-8.5 9.4-9 15.4-.5 7.2.6 16.3 7.6 20.3 3.2.6 6.9.5 8.9-2.5 5.2-5.4 3.3-13.3 3.6-20 .2-6.1-4.3-14-11.2-13.3zm46.7-23l6.1-.1c2.7 7.5 4.3 15.3 6.7 22.9 2.9 11.2 6.8 22.1 8.8 33.6.7-1.2 1.4-2.3 2-3.5 5-17 10.4-33.9 15.6-50.8 1-3.2 4.9-1.8 7.4-2.1-.5 3.7-1.9 7.2-3.1 10.8-5.9 18-11.5 36-17.5 54-2.3 0-4.6 0-6.8.1-2.1-4.7-3.3-9.7-4.8-14.6-4.7-15.4-9.3-30.7-14.1-46-.3-1.4-.5-2.8-.5-4.2zm51.1-.1c2 .3 4.7-.7 6.1 1.2.1 2.4 0 4.9-.2 7.4-2 .5-4 .3-6 .4-.1-3-.1-6.1 0-9.1zm56.3.8c2.2-.7 4.5-.9 6.9-.6-.1 21.4-.1 42.9 0 64.4-2.4.2-4.7 0-6.9-.6.1-21.1.1-42.2 0-63.2zm65.1 22.7c3.4-7.7 14.5-8.9 20.2-3.2 2.5 3 3.7 7 3.5 10.9v33.3c-2.1.1-4.2.1-6.2 0v-31.4c0-3.5-1.4-7.3-4.4-9.3-3-.4-6.7-1.1-9.1 1.2-3.6 2.9-4.6 7.7-4.5 12.1 0 9.1-.1 18.1.1 27.2l-6.2.3c-.1-15.6-.1-31.2 0-46.9l5.1-.1 1.3 5.7zm-264.3-5.5l6.1-.2c.1 15.6 0 31.2.1 46.9-2.2 0-4.3-.1-6.3-.7.3-15.4.1-30.7.1-46zm142.3-.1c2.2-.1 4.4-.1 6.6-.1-.1 15.4.1 30.8-.1 46.2-1.8 1.5-4.6.4-6.6 0 .1-15.4 0-30.8 0-46.1zm28.4-1c7.2-1.4 14.7 2.6 18 9 4.2 8.2 3.9 18.1 1.5 26.8-2.1 6.6-8.4 13.1-15.8 12.3-10.2 1.4-17.8-9.4-17.7-18.7.2-6.5-1.1-13.6 2.1-19.6 2.5-4.7 6.8-8.4 11.8-9.8m1.3 6.2c-5.9 1.8-9.2 8.2-9.1 14.1-.2 6.5-.8 14.2 4.6 19.1 2.4 3.2 6.8 2.8 10.4 2.2 6.2-3.7 7.9-11.5 7.9-18.2-.6-4.9-1.1-10.2-4.6-13.9-2.4-2.4-5.9-4.4-9.3-3.4zm49.6-2.8c5.7-4.8 15.1-5.1 20.5.4 6.5 5.6 7.8 14.8 7 22.9-9.5-.2-18.9-.1-28.3-.1.2 3.2-.2 6.7 1.8 9.4 2.3 3.2 5.7 6.6 10 5.8 4.9.5 8.2-4.2 9.8-8.3 2 0 4 0 6 .1-.2 4.9-3.1 9.5-7.2 12.2-4.2 3-9.8 2-14.6 1.7-7.4-2.5-11.9-10.3-12.5-17.8-.8-9.3-.1-20.1 7.5-26.6m7 3.4c-5.6 2.1-8.3 8.4-7.7 14H735c0-4.3-1.5-8.6-4.3-11.8-2.6-2.5-6.8-4.2-10.2-2.2zm73.8-2.5c4.3-4.4 11.5-5.9 17.1-3.1 5.2 2.2 8.8 8 8.5 13.6l-5.8.3c-1.1-3.5-2.8-7.3-6.6-8.6-4.6-2-9.1 1.8-11.4 5.6-3 7.3-3.4 15.9-.5 23.2 1.5 3.9 5.1 7.6 9.6 6.7 6.1.4 8.2-6.6 9.5-11.3 1.7.2 3.5.4 5.2.7.7 8.2-6 17.4-14.8 16.7-6.4.9-12.4-3.4-14.8-9.2-3.3-6.7-3.1-14.3-2.5-21.5 1-4.8 2.5-9.8 6.2-13.3zm36.6.6c5.3-6 15.6-7.1 21.5-1.5 6.8 5.5 8.4 15 7.5 23.3-9.5-.1-18.9 0-28.4-.1.2 3.2-.3 6.7 1.8 9.5 2.4 3.2 5.7 6.6 10.1 5.8 4.9.4 8.2-4.2 9.7-8.4 2.3 0 4.6.1 6.8.3-1.7 5.1-4.2 10.8-9.7 13-6.7 3.5-15.5 1.5-20.3-4.2-4.2-4.8-5.5-11.3-5.3-17.4-.3-7.2.8-15.2 6.1-20.6m8.6 1.9c-5.5 2.1-8.3 8.4-7.7 14 7.4-.1 14.8-.1 22.2-.1 0-4.5-1.6-9-4.8-12.3-2.6-2.2-6.5-3.6-9.7-1.7zM92.6 424c2.78-1.3 6.17-.44 7.87 2.1.3 4 .3 8.06-.1 12.05-1.7 2.6-4.8 3.14-7.6 2.9-.2-5.7-.1-11.4-.1-17.1zm30.6-.9c2.87-.04 6.45-.24 8.1 2.66.57 4.47.7 9.1-.52 13.5l-7.5.14c0-5.44.05-10.86-.03-16.28zm75.36.9c.92-1.4 3-.76 4.44-.9 2.8 1.4 3.64 4.65 3.5 7.5 0 9.03.1 18.05 0 27.06-.07 2.7-1.3 6.7-4.6 6.56-3.25.75-5.1-2.96-5.3-5.66-.06-9.6 0-19.22 0-28.84-.1-2.04.7-4.05 2-5.6zm192.83-.2c2.5.07 5 .15 7.3 1.38 0 4.48.6 9-.3 13.4-1.8 2.2-4.6 1.8-7 1.94-.2-5.5-.2-11.1 0-16.6zm32.8 26.5c0-7 1.4-14 3.8-20.5 1.7 3.23 1.3 6.9 2.1 10.35.8 3.26 1.6 6.55 1.6 9.94-2.5 0-5 0-7.4.1zm382.6-18.2c2.3-.17 4.5.7 5.3 3 .4 2.65.2 5.34.2 8-2.3.07-4.6.08-6.9-.05.1-3.7-.3-7.56 1.4-11zm66.7 1c1.3 0 2.5.05 3.8.1 1.6 8.8 1.6 17.96-.1 26.76h-4.4c-.4-7.1-.1-14.2-.2-21.33-.1-1.9.4-3.7 1-5.5zm40.5 2.06c.6-2.56 3.3-2.06 5.4-2 .1 8.67.1 17.3 0 26-1.5-.2-3.9 1-4.7-.9-1.5-2.6-.7-5.7-.9-8.6.1-4.8-.4-9.7.2-14.5zm43.6-2c1.3-.06 2.6-.1 3.9-.14 2.4 5.3 1.6 11.14 1.7 16.75.1 2.9-.9 5.78-1.8 8.5l-3.6-.26c-1.2-8.2-1.3-16.6-.2-24.8zM123.4 446c2.34.08 4.7-.04 7 .4 3.4 3.7 2 9.37 1.8 13.9-.7 4.3-5.5 3.9-8.8 3.9-.22-6.05-.1-12.1-.03-18.2z"/>
    </g>
</svg>