<svg fill="#999" viewBox="0 0 2000 417" xmlns="http://www.w3.org/2000/svg">
    <path d="M200.3 0h.48c38.95 7.8 77.15 18.95 114.9 31.28 17.83 5.86 35.47 12.74 51.65 22.37 14.22 8.56 27.24 19.76 35.9 34.08 12.45 20.37 15.78 44.8 16.13 68.26.4 19.4-1.85 39.6-11.54 56.8-7.08 12.8-19.46 22.8-33.9 25.8-17.56 3.8-35.62-1.1-51.58-8.4-.26-43.4-.12-86.8-.17-130.2-.04-7-.6-14.2-3.53-20.6-2.57-5.9-8.1-10.2-14.3-11.7-4-1.3-8.56 0-11.27 3.2-4.48 5.2-5.43 12.4-5.53 19-.03 107.6-.02 215.2-.04 322.8-29.02-9.3-58.03-18.6-87.14-27.6-.15-128.4-.05-256.8-.05-385.3zm518.6 95.56c103.04-.06 206.07 0 309.1-.03 13.47-.6 27.12 2.98 38.62 10 12.7 7.6 21.83 20.4 25.9 34.53 4 13.9 4.13 28.84 1.03 42.94-3.45 15.23-12.4 29.43-25.68 37.9-15.5 10.3-34.7 12.33-52.85 11.63h-206c-8.16-.16-16.54 2.38-22.55 8.04-8.92 8.2-12.58 20.67-12.62 32.5-.05 24.63-.04 49.27 0 73.9-.02 1.5-.27 3-.54 4.5-18-.14-36.2.26-54.2-.2-.3-25.76 0-51.54-.1-77.3-.2-19.22 6.7-38.93 20.6-52.46 10.6-10.5 25.6-16.5 40.6-16.4h226.1c9.6 0 19.6-3.6 25.7-11.3 7.6-9.4 9.5-22 9-33.7-.4-10.8-3.5-22.4-11.7-30-6.63-6.2-16-8.5-24.9-8.4-94.34 0-188.7.1-283 0-1.64.4-2.4-1.1-2.12-2.5-.1-7.8-.02-15.6 0-23.4zm586.85 11.14c9.87-6.57 21.56-10.22 33.34-11.15 60.3-.03 120.6-.03 180.9 0-.1 8.16.2 16.34-.1 24.5.1 1.64-1.9 1.5-2.9 1.55h-134c-8.7.24-17.6-.85-26 1.77-7 2.03-13.1 6.68-16.9 12.86-5.2 8.22-6.7 18.18-6.7 27.75V266c-.1 11 .5 22.1-1.6 32.94-2.8 14.4-10.1 28.14-21.7 37.32-13.7 11.13-31.9 15.4-49.2 15.22-59.1-.1-118.2.17-177.3-.15-.5-8.1-.2-16.22-.3-24.33-.4-1.62.5-3.3 2.4-2.96 52.4-.1 104.7 0 157.1-.04 8.5.1 17.3-2.52 23.5-8.48 8.6-8 11.6-20.17 11.83-31.53.1-39.7 0-79.4.03-119.1-.06-9.8 1.15-19.8 4.56-29 4.3-11.8 12.2-22.4 22.7-29.3zm508.78-2.16c5.8-3.63 11.86-7.13 18.57-8.77 3.93-.52 7.93-.14 11.9-.26 5.95-.6 11 3.9 13.77 8.8 4 7.3 3.9 15.8 3.85 23.8-.02 55 0 110-.02 165-.2 1.7.27 3.9 2.48 3.5 17.4.3 34.85-.3 52.26.3.24 9.1.55 18.2-.15 27.2-14.8.2-29.5.1-44.2.1-3.5.1-7.1-.4-10.4.7-.1 7.8 0 15.7 0 23.5-.3 1 .2 3.3-1.5 3.1-16.4.38-32.8 0-49.2.2-1.5-.3-4.3.7-4.5-1.43-.7-8.5.7-17.3-.7-25.7-23-.6-46-.1-68.9-.24h-219.9c-6-.1-12.5-.9-17.5-4.5-3.6-2.46-5.9-7.1-4.6-11.45 1.4-5.5 5.7-9.62 10.1-12.92 5.8-4.2 12.2-7.8 18.3-11.6 96.7-59.6 193.4-119.3 290.1-178.9m-11.2 39.84c-79.5 48.82-158.7 98.03-238 147-1.4 1.06-4 2.07-3 4.26 2.3 1.2 5.1.7 7.6.8 78.3-.1 156.7 0 235.1-.1 2.1.5 2.8-1.6 2.6-3.33-.1-48.7 0-97.4-.1-146.13.4-2.3-2.4-4.1-4.3-2.5zM65.5 274.6c39.26-13.94 78.5-27.83 117.75-41.7 0 16.8.03 33.66 0 50.5-28.2 10.2-56.4 20.2-84.6 30.3-5.6 2.1-11.6 3.85-16.27 7.77-2.23 1.8-4.05 5.37-1.8 7.88 3.14 3.5 7.9 4.7 12.3 5.6 14.88 2.6 30.36 1.2 44.76-3.1 15.2-5.2 30.3-10.9 45.5-16.3-.03 15.1.2 30.2-.06 45.27-16.9 2.84-34 5.1-51.2 5-31.2.38-62.3-4.83-91.9-14.47-9.3-2.67-18.5-6.23-26.4-11.85-6.5-4.6-12.2-11.1-13.6-19.15v-4.38c1.1-8.3 7.5-14.4 14.3-18.5 15.86-10.1 33.53-16.8 51.2-22.9z"/>
    <path d="M365.9 257.34c29.72-4.23 60.07-3 89.57 2.33 17.96 3.23 35.43 8.74 52.37 15.46 9.83 4.27 20.06 9.87 25.52 19.5 4.26 7.4 2.07 17.04-3.83 22.88-9.77 10.1-22.77 16.3-35.66 21.3-63.26 22.8-126.6 45.3-189.83 68.2.07-16.8-.17-33.7.1-50.5l131.77-46.8c6.7-2.6 14.2-4.2 19.7-9.1 2.1-1.7 3.7-5.1 1.6-7.5-3.7-4.2-9.7-5-14.9-6-16-2-32.6-.1-47.8 5.6-30.1 10.6-60.2 21.2-90.3 31.7V272c20-7.1 40.9-11.64 61.9-14.5zm1578.85 65.22c7.45-.02 14.9-.02 22.36 0v3.3h-9.2v25.47h-3.9v-25.47h-9.2v-3.3zm25.95-.02h5.37c2.82 8.17 5.5 16.4 8.4 24.55 2.68-8.3 5.32-16.5 8.12-24.6h4.6v28.7h-3.2c-.2-7.7.2-15.4-.3-23-2.4 7.7-5 15.3-7.6 23h-3.9c-2.6-7.7-5-15.4-7.7-23-.1 7.6 0 15.3-.1 23h-3.9v-28.7zm-1471.36 55c6.36-2.36 13.85-1.07 19.12 3.2 4.62 3.63 7.46 9.4 7.48 15.3.18 6.67-3.37 13.2-8.92 16.84-6.43 4.4-15.54 4.4-21.97.02-6.24-3.97-9.77-11.68-8.8-19 .8-7.36 6.13-13.9 13.1-16.37m2.82 2.67c-6.16 1.4-11.24 6.64-12.4 12.85-1.3 6.22 1.38 13.04 6.58 16.7 5.98 4.36 14.98 4.03 20.5-.96 5.4-4.6 7.27-12.7 4.36-19.2-3-7.2-11.4-11.4-19-9.5z"/>
    <path d="M497.48 406.88c.05-7.36 0-14.72.02-22.08 4.72.2 9.58-.58 14.2.6 4.4 1.5 4.6 7.7 1.45 10.53 2.67 3.07 1.35 7.47 3.04 11-1.6 0-3 .03-4.5.06-.6-2.8-.2-5.9-1.4-8.4-2.7-1.4-6-.5-9-.7 0 3-.1 6-.1 9-1.3 0-2.6-.1-3.8-.1m3.9-18.6v6.1c2.5 0 5.1.1 7.7-.2 2.9 0 3.3-5.3.4-5.7-2.7-.4-5.5-.2-8.2-.2z"/>
</svg>